HIERARCHY
ROOT Hips
{
  OFFSET 51.9024 96.0937 8.4514
  CHANNELS 6 Xposition Yposition Zposition Zrotation Xrotation Yrotation
  JOINT spine
  {
    OFFSET 0 8.13249 0.467659
    CHANNELS 3 Zrotation Xrotation Yrotation
    JOINT spine1
    {
      OFFSET 0 10.3498 0
      CHANNELS 3 Zrotation Xrotation Yrotation
      JOINT spine2
      {
        OFFSET 0 9.91699 0
        CHANNELS 3 Zrotation Xrotation Yrotation
        JOINT Neck
        {
          OFFSET 0 25.461 1.2139
          CHANNELS 3 Zrotation Xrotation Yrotation
          JOINT Head
          {
            OFFSET 0 7.69245 0
            CHANNELS 3 Zrotation Xrotation Yrotation
            End Site
            {
              OFFSET 0 18.62 -6.14063
            }
          }
        }
        JOINT RightShoulder
        {
          OFFSET -4.17575 10.7096 -0.581445
          CHANNELS 3 Zrotation Xrotation Yrotation
          JOINT RightArm
          {
            OFFSET 0 14.0466 0
            CHANNELS 3 Zrotation Xrotation Yrotation
            JOINT RightArmRoll
            {
              OFFSET 0 7.09098 0
              CHANNELS 3 Zrotation Xrotation Yrotation
              JOINT RightForeArm
              {
                OFFSET 0 20.6535 0
                CHANNELS 3 Zrotation Xrotation Yrotation
                JOINT RightForeArmRoll
                {
                  OFFSET 0 7.95718 0
                  CHANNELS 3 Zrotation Xrotation Yrotation
                  JOINT RightHand
                  {
                    OFFSET 0 15.9683 0
                    CHANNELS 3 Zrotation Xrotation Yrotation
                    End Site
                    {
                      OFFSET 0 0 0
                    }
                  }
                }
              }
            }
          }
        }
        JOINT LeftShoulder
        {
          OFFSET 4.17575 10.7096 -0.581445
          CHANNELS 3 Zrotation Xrotation Yrotation
          JOINT LeftArm
          {
            OFFSET 0 14.0466 0
            CHANNELS 3 Zrotation Xrotation Yrotation
            JOINT LeftArmRoll
            {
              OFFSET 0 7.09098 0
              CHANNELS 3 Zrotation Xrotation Yrotation
              JOINT LeftForeArm
              {
                OFFSET 0 20.6535 0
                CHANNELS 3 Zrotation Xrotation Yrotation
                JOINT LeftForeArmRoll
                {
                  OFFSET 0 7.95718 0
                  CHANNELS 3 Zrotation Xrotation Yrotation
                  JOINT LeftHand
                  {
                    OFFSET 0 15.9683 0
                    CHANNELS 3 Zrotation Xrotation Yrotation
                    End Site
                    {
                      OFFSET 0 0 0
                    }
                  }
                }
              }
            }
          }
        }
      }
    }
  }
  JOINT RightUpLeg
  {
    OFFSET -7.20834 -1.32182 -1.10884
    CHANNELS 3 Zrotation Xrotation Yrotation
    JOINT RightUpLegRoll
    {
      OFFSET 0 18.7238 0
      CHANNELS 3 Zrotation Xrotation Yrotation
      JOINT RightLeg
      {
        OFFSET 0 -23.1866 0
        CHANNELS 3 Zrotation Xrotation Yrotation
        JOINT RightLegRoll
        {
          OFFSET 0 23.2624 0
          CHANNELS 3 Zrotation Xrotation Yrotation
          JOINT RightFoot
          {
            OFFSET 0 19.3621 0
            CHANNELS 3 Zrotation Xrotation Yrotation
            JOINT RightToeBase
            {
              OFFSET 0 16.1857 0
              CHANNELS 3 Zrotation Xrotation Yrotation
              End Site
              {
                OFFSET 0.00686052 7.83863 -0.903521
              }
            }
          }
        }
      }
    }
  }
  JOINT LeftUpLeg
  {
    OFFSET 7.20834 -1.32182 -1.10884
    CHANNELS 3 Zrotation Xrotation Yrotation
    JOINT LeftUpLegRoll
    {
      OFFSET 0 18.7239 0
      CHANNELS 3 Zrotation Xrotation Yrotation
      JOINT LeftLeg
      {
        OFFSET 0 23.1865 0
        CHANNELS 3 Zrotation Xrotation Yrotation
        JOINT LeftLegRoll
        {
          OFFSET 0 23.4775 0
          CHANNELS 3 Zrotation Xrotation Yrotation
          JOINT LeftFoot
          {
            OFFSET 0 19.147 0
            CHANNELS 3 Zrotation Xrotation Yrotation
            JOINT LeftToeBase
            {
              OFFSET 0 16.1857 0
              CHANNELS 3 Zrotation Xrotation Yrotation
              End Site
              {
                OFFSET -0.0307459 7.83863 -0.903522
              }
            }
          }
        }
      }
    }
  }
}
MOTION
Frames: 8
Frame Time: 0.00208333
52.2426 96.0908 8.64823 -0.850527 -3.57365 2.0101 0.368123 -1.51317 0.169283 0.73149 0.977391 0.317882 0.728132 2.62239 0.305787 -3.35252 10.6838 -2.20643 -6.81324 4.21588 -3.52191 31.9708 -17.5041 -13.8644 42.5951 55.0737 44.8571 1.00957e-006 -2.46307e-007 -4.762e-006 177.113 73.6269 -177.066 -7.04043e-006 2.77283e-006 -3.00073 8.02933 -4.95146 0.697668 -63.021 -7.0266 4.52281 -105.402 16.8874 -11.8193 -1.13028e-006 -2.59208e-007 5.97952e-006 -7.47786 0.0625112 1.14862 8.40987e-007 -4.49122e-007 3.02707 -8.02901 -4.95146 -0.697668 173.557 2.37754 3.06105 -180 7.01565e-015 179.003 179.232 12.0349 179.538 4.21872e-006 1.25001e-006 0.138163 -18.3551 69.3394 20.6554 8.13658 25.2339 -3.48611 -171.949 1.41806 -2.43519 4.54188e-006 -4.6773e-006 -0.894062 -1.19196 -12.7774 0.497192 2.22653e-006 4.09114e-006 -0.100029 18.3034 70.7355 -21.9016 -8.13664 25.2348 3.48486 
52.262 96.082 8.63786 -0.851898 -3.57448 2.01404 0.367252 -1.51372 0.168056 0.729311 0.976283 0.316023 0.725974 2.62128 0.303964 -3.28338 10.687 -2.21381 -6.83456 4.23044 -3.51275 31.9837 -17.4921 -13.8502 42.5867 55.0872 44.5191 1.00957e-006 -2.46307e-007 -4.762e-006 177.347 73.2678 -177.426 -7.04043e-006 2.77283e-006 -3.00072 8.02933 -4.95146 0.697668 -63.0015 -7.0324 4.52538 -105.424 16.8923 -11.8267 -1.13028e-006 -2.59208e-007 5.97952e-006 -7.47054 0.0625077 1.15051 8.40987e-007 -4.49122e-007 3.02713 -8.02901 -4.95146 -0.697668 173.562 2.37496 3.05812 -180 7.01565e-015 179.003 179.234 12.0347 179.538 4.21872e-006 1.25001e-006 0.138594 -18.3541 69.339 20.6545 8.13658 25.2339 -3.48611 -171.946 1.41931 -2.43782 4.54188e-006 -4.6773e-006 -0.894114 -1.19208 -12.7832 0.49679 2.22653e-006 4.09114e-006 -0.100467 18.3062 70.7387 -21.9048 -8.13664 25.2348 3.48486 
52.261 96.0852 8.64218 -0.853343 -3.57527 2.01808 0.366421 -1.5143 0.166945 0.727353 0.975112 0.314252 0.724037 2.62011 0.302224 -3.21826 10.6899 -2.21976 -6.85254 4.24601 -3.50286 31.9936 -17.4802 -13.8363 42.5823 55.0998 44.1793 1.00957e-006 -2.46307e-007 -4.762e-006 177.572 72.912 -177.777 -7.04043e-006 2.77283e-006 -3.00071 8.02933 -4.95146 0.697668 -62.9842 -7.03718 4.52745 -105.442 16.8962 -11.8323 -1.13028e-006 -2.59208e-007 5.97952e-006 -7.46469 0.0625039 1.15214 8.40987e-007 -4.49122e-007 3.02719 -8.02901 -4.95146 -0.697668 173.566 2.37243 3.0552 -180 7.01565e-015 179.003 179.236 12.0346 179.538 4.21872e-006 1.25001e-006 0.139001 -18.3536 69.3388 20.6538 8.13658 25.2339 -3.48611 -171.942 1.42056 -2.44053 4.54188e-006 -4.6773e-006 -0.894164 -1.1922 -12.7888 0.496459 2.22653e-006 4.09115e-006 -0.100899 18.3092 70.7418 -21.9079 -8.13664 25.2348 3.48486 
52.2453 96.0835 8.64224 -0.854877 -3.57599 2.02217 0.365645 -1.51493 0.16597 0.725666 0.973858 0.312589 0.72237 2.61886 0.300587 -3.15791 10.6925 -2.22406 -6.86652 4.2627 -3.49218 32 -17.4684 -13.8231 42.5826 55.1115 43.8377 1.00957e-006 -2.46307e-007 -4.762e-006 177.788 72.559 -178.12 -7.04043e-006 2.77283e-006 -3.00071 8.02933 -4.95146 0.697668 -62.9695 -7.04076 4.52894 -105.457 16.8987 -11.836 -1.13028e-006 -2.59208e-007 5.97952e-006 -7.46062 0.0624999 1.15346 8.40987e-007 -4.49122e-007 3.02725 -8.02901 -4.95146 -0.697668 173.57 2.36997 3.05232 -180 7.01565e-015 179.003 179.237 12.0346 179.538 4.21872e-006 1.25001e-006 0.139376 -18.3539 69.339 20.6534 8.13658 25.2339 -3.48611 -171.938 1.42177 -2.44331 4.54188e-006 -4.6773e-006 -0.894213 -1.19233 -12.7941 0.496212 2.22653e-006 4.09114e-006 -0.10132 18.3123 70.7447 -21.9108 -8.13664 25.2348 3.48486 
52.2439 96.0819 8.64301 -0.856517 -3.57666 2.0263 0.364938 -1.5156 0.165153 0.724301 0.972499 0.311054 0.721024 2.6175 0.299073 -3.10306 10.6949 -2.2265 -6.87582 4.28064 -3.4806 32.0021 -17.4567 -13.8106 42.5884 55.122 43.4943 1.00957e-006 -2.46307e-007 -4.762e-006 177.995 72.2083 -178.455 -7.04043e-006 2.77283e-006 -3.0007 8.02933 -4.95146 0.697668 -62.958 -7.04294 4.52974 -105.468 16.8997 -11.8374 -1.13028e-006 -2.59208e-007 5.97952e-006 -7.45863 0.0624956 1.15439 8.40987e-007 -4.49122e-007 3.02731 -8.02901 -4.95146 -0.697668 173.575 2.3676 3.04948 -180 7.01565e-015 179.003 179.239 12.0347 179.538 4.21872e-006 1.25001e-006 0.139715 -18.355 69.3396 20.6535 8.13658 25.2339 -3.48611 -171.934 1.42293 -2.44618 4.54188e-006 -4.6773e-006 -0.89426 -1.19248 -12.7991 0.496062 2.22653e-006 4.09114e-006 -0.101724 18.3155 70.7474 -21.9135 -8.13664 25.2348 3.48486 
52.2368 96.0904 8.65954 -0.858276 -3.57723 2.03045 0.364312 -1.51634 0.164514 0.723308 0.971016 0.309666 0.720049 2.61601 0.297699 -3.05444 10.697 -2.22684 -6.87977 4.29997 -3.46805 31.9993 -17.4452 -13.7988 42.6004 55.1314 43.149 1.00957e-006 -2.46307e-007 -4.762e-006 178.194 71.8594 -178.782 -7.04043e-006 2.77283e-006 -3.0007 8.02933 -4.95146 0.697668 -62.9498 -7.04355 4.52977 -105.473 16.8988 -11.8362 -1.13028e-006 -2.59208e-007 5.97952e-006 -7.45901 0.062491 1.1549 8.40987e-007 -4.49122e-007 3.02736 -8.02901 -4.95146 -0.697668 173.579 2.36534 3.04669 -180 7.01565e-015 179.003 179.24 12.035 179.538 4.21872e-006 1.25001e-006 0.140009 -18.3572 69.3407 20.6539 8.13658 25.2339 -3.48611 -171.93 1.424 -2.44917 4.54188e-006 -4.6773e-006 -0.894305 -1.19264 -12.8036 0.496021 2.22653e-006 4.09114e-006 -0.102107 18.3188 70.7498 -21.916 -8.13664 25.2348 3.48486 
52.2438 96.0887 8.65635 -0.860148 -3.57786 2.03454 0.363735 -1.51712 0.164061 0.722713 0.96945 0.308406 0.719473 2.61445 0.296446 -3.01234 10.6988 -2.22448 -6.87887 4.3215 -3.45394 31.9909 -17.4342 -13.7883 42.6178 55.1406 42.802 1.00957e-006 -2.46307e-007 -4.762e-006 178.386 71.5129 -179.103 -7.04043e-006 2.77283e-006 -3.00069 8.02933 -4.95146 0.697668 -62.9454 -7.04232 4.52891 -105.474 16.8959 -11.8321 -1.13028e-006 -2.59208e-007 5.97952e-006 -7.46198 0.062486 1.15494 8.40987e-007 -4.49122e-007 3.02742 -8.02901 -4.95146 -0.697668 173.584 2.36309 3.04392 -180 7.01565e-015 179.002 179.241 12.0355 179.538 4.21872e-006 1.25001e-006 0.140267 -18.3603 69.3423 20.6547 8.13658 25.2339 -3.48611 -171.926 1.42486 -2.45231 4.54188e-006 -4.6773e-006 -0.894361 -1.19283 -12.8079 0.496087 2.22653e-006 4.09114e-006 -0.102517 18.3225 70.7521 -21.9184 -8.13664 25.2348 3.48486 
52.2337 96.0853 8.64557 -0.862107 -3.57863 2.03857 0.363165 -1.51792 0.163779 0.722476 0.967856 0.307237 0.719255 2.61285 0.295277 -2.9761 10.7002 -2.21921 -6.87426 4.34572 -3.43796 31.9772 -17.4239 -13.7793 42.6393 55.1506 42.4535 1.00957e-006 -2.46307e-007 -4.762e-006 178.574 71.1697 -179.422 -7.04043e-006 2.77283e-006 -3.00068 8.02933 -4.95146 0.697668 -62.9446 -7.03931 4.52715 -105.469 16.8911 -11.8255 -1.13028e-006 -2.59208e-007 5.97952e-006 -7.46731 0.0624806 1.15457 8.40987e-007 -4.49122e-007 3.02748 -8.02901 -4.95146 -0.697668 173.589 2.36078 3.04113 -180 7.01565e-015 179.002 179.241 12.0363 179.538 4.21872e-006 1.25001e-006 0.140502 -18.3642 69.3443 20.6559 8.13658 25.2339 -3.48611 -171.921 1.42546 -2.45562 4.54188e-006 -4.6773e-006 -0.894437 -1.19307 -12.8122 0.496245 2.22653e-006 4.09114e-006 -0.102997 18.3268 70.7544 -21.9209 -8.13664 25.2348 3.48486 
